<svg height="512pt" viewBox="0 0 512 512" width="512pt" xmlns="http://www.w3.org/2000/svg"><path d="m427.859375 410.140625 62.421875-62.421875c7.507812-7.507812 11.71875-17.679688 11.71875-28.289062v-133.429688c0-9.585938-4.5-18.117188-11.5-23.609375-7 5.492187-11.5 14.023437-11.5 23.609375v87.640625l-.011719.007813c-10.40625-9.339844-25.75-10.113282-36.988281-2.359376v2.351563l-.011719.007813c-.484375-.433594-.988281-.847657-1.496093-1.246094-.933594.734375-1.839844 1.527344-2.703126 2.386718l-67.070312 67.070313c-7.507812 7.5-11.71875 17.679687-11.71875 28.289063v68.851562h63v-14.71875c0-5.300781 2.109375-10.390625 5.859375-14.140625zm0 0" fill="#febdad"/><path d="m442 439v63h-89v-63zm0 0" fill="#4dbbeb"/><path d="m287 13.464844c-62.324219 14.144531-109 69.988281-109 136.535156s46.675781 122.390625 109 136.535156c62.324219-14.144531 109-69.988281 109-136.535156s-46.675781-122.390625-109-136.535156zm0 0" fill="#feb756"/><path d="m210 439v63h-95v-63zm0 0" fill="#4dbbeb"/><path d="m178.28125 341.859375-67.070312-67.070313c-1.464844-1.464843-3.042969-2.738281-4.707032-3.839843-1.214844.804687-2.382812 1.703125-3.492187 2.699219l-.011719-.007813v-4.683594c-10.683594-5.136719-23.769531-3.578125-32.988281 4.691407l-.011719-.007813v-87.640625c0-10.472656-5.367188-19.6875-13.5-25.050781-8.132812 5.363281-13.5 14.578125-13.5 25.050781v133.429688c0 10.609374 4.210938 20.78125 11.71875 28.289062l62.421875 62.421875c3.75 3.75 5.859375 8.839844 5.859375 14.140625v14.71875h67v-68.851562c0-10.609376-4.210938-20.789063-11.71875-28.289063zm0 0" fill="#febdad"/><path d="m196 80c5.519531 0 10-4.480469 10-10s-4.480469-10-10-10-10 4.480469-10 10 4.480469 10 10 10zm0 0"/><path d="m256 180c-4.273438 0-8.882812-2.6875-12.984375-7.566406-3.554687-4.226563-9.863281-4.773438-14.089844-1.21875-4.226562 3.554687-4.773437 9.863281-1.21875 14.089844 5.34375 6.359374 11.632813 10.789062 18.292969 13.023437v11.671875c0 5.523438 4.476562 10 10 10s10-4.476562 10-10v-11.71875c11.640625-4.128906 20-15.246094 20-28.28125 0-16.542969-13.457031-30-30-30-5.515625 0-10-4.484375-10-10s4.484375-10 10-10c3.542969 0 7.28125 1.808594 10.816406 5.226562 3.96875 3.839844 10.296875 3.738282 14.140625-.230468 3.839844-3.96875 3.734375-10.300782-.234375-14.140625-5.074218-4.914063-10.152344-7.691407-14.722656-9.207031v-11.648438c0-5.523438-4.476562-10-10-10s-10 4.476562-10 10v11.71875c-11.640625 4.128906-20 15.246094-20 28.28125 0 16.542969 13.457031 30 30 30 5.515625 0 10 4.484375 10 10s-4.484375 10-10 10zm0 0"/><path d="m472 146c-22.054688 0-40 17.945312-40 40v71.269531c-13.285156-3.421875-27.941406.113281-38.28125 10.449219l-67.066406 67.066406c-9.449219 9.4375-14.652344 21.996094-14.652344 35.363282v58.851562h-10c-5.523438 0-10 4.476562-10 10v63c0 5.523438 4.476562 10 10 10h140c5.523438 0 10-4.476562 10-10v-63c0-5.523438-4.476562-10-10-10h-10v-4.71875c0-2.628906 1.066406-5.207031 2.933594-7.070312l62.417968-62.421876c9.445313-9.445312 14.648438-22.003906 14.648438-35.359374v-133.429688c0-22.054688-17.945312-40-40-40zm-40 346h-120v-43h120zm60-172.570312c0 8.015624-3.121094 15.550781-8.789062 21.21875l-62.421876 62.421874c-5.585937 5.585938-8.789062 13.316407-8.789062 21.210938v4.71875h-80v-58.851562c0-8.019532 3.121094-15.554688 8.789062-21.21875l67.070313-67.070313c7.507813-7.503906 19.566406-7.84375 27.453125-.765625.054688.050781.113281.101562.171875.148438.226563.195312.441406.40625.65625.621093 3.777344 3.777344 5.859375 8.796875 5.859375 14.136719s-2.082031 10.359375-5.859375 14.140625l-49.691406 49.6875c-3.90625 3.90625-3.90625 10.238281 0 14.144531s10.234375 3.90625 14.144531 0l49.6875-49.6875c7.554688-7.554687 11.71875-17.597656 11.71875-28.285156 0-9.839844-3.539062-19.132812-10-26.441406v-83.558594c0-11.027344 8.972656-20 20-20s20 8.972656 20 20zm0 0"/><path d="m210 429h-10v-58.851562c0-13.367188-5.203125-25.925782-14.648438-35.359376l-67.070312-67.070312c-10.339844-10.339844-24.996094-13.871094-38.28125-10.449219v-71.269531c0-22.054688-17.945312-40-40-40s-40 17.945312-40 40v133.429688c0 13.355468 5.203125 25.914062 14.648438 35.359374l62.417968 62.421876c1.867188 1.863281 2.933594 4.4375 2.933594 7.070312v4.71875h-10c-5.523438 0-10 4.476562-10 10v63c0 5.523438 4.476562 10 10 10h140c5.523438 0 10-4.476562 10-10v-63c0-5.523438-4.476562-10-10-10zm-118.789062-25.929688-62.421876-62.421874c-5.667968-5.667969-8.789062-13.203126-8.789062-21.21875v-133.429688c0-11.027344 8.972656-20 20-20s20 8.972656 20 20v83.558594c-6.460938 7.308594-10 16.597656-10 26.441406 0 10.6875 4.164062 20.730469 11.71875 28.28125l50 50c3.90625 3.90625 10.234375 3.90625 14.144531 0 3.902344-3.90625 3.902344-10.238281 0-14.144531l-50.003906-50c-3.777344-3.777344-5.859375-8.796875-5.859375-14.136719s2.082031-10.359375 5.855469-14.136719c.21875-.214843.433593-.425781.660156-.621093l.171875-.148438c7.886719-7.078125 19.945312-6.738281 27.449219.765625l67.078125 67.074219c5.664062 5.660156 8.785156 13.195312 8.785156 21.214844v58.851562h-80v-4.71875c0-7.894531-3.203125-15.625-8.789062-21.210938zm108.789062 88.929688h-120v-43h120zm0 0"/><path d="m406 150c0-82.710938-67.289062-150-150-150s-150 67.289062-150 150 67.289062 150 150 150 150-67.289062 150-150zm-150 130c-71.683594 0-130-58.316406-130-130s58.316406-130 130-130 130 58.316406 130 130-58.316406 130-130 130zm0 0"/><path d="m325.054688 64.367188c-26.023438-21.007813-60.078126-28.933594-93.421876-21.742188-5.398437 1.164062-8.832031 6.484375-7.667968 11.882812 1.164062 5.398438 6.484375 8.828126 11.882812 7.667969 27.410156-5.910156 55.34375.558594 76.644532 17.753907 21.292968 17.195312 33.507812 42.734374 33.507812 70.070312 0 49.625-40.375 90-90 90s-90-40.375-90-90c0-14.824219 3.679688-29.519531 10.640625-42.492188 2.613281-4.867187.785156-10.929687-4.082031-13.539062-4.867188-2.613281-10.929688-.785156-13.539063 4.082031-8.515625 15.875-13.019531 33.835938-13.019531 51.949219 0 60.652344 49.347656 110 110 110s110-49.347656 110-110c0-33.410156-14.925781-64.621094-40.945312-85.632812zm0 0"/></svg>